REM DIRINDEX 1\6,1\2\7,1\2\8,1\2\9,1\3\10,1\3\11,1\4\12,1\4\13,1\4\14,1\5\15,1\5\16,1\5\17
REM DIRNAME cjc040,folder01,folder02,folder03,folder04,folder05,folder06,folder07,folder08,folder09,folder10,folder11,folder12,folder13,folder14,folder15,folder16
TITLE ""
FILE "P2Q_j_1142-1155.mp3" MP3
  TRACK 01 AUDIO
    TITLE "12:cjc040_0170"
    INDEX 01 00:00:00
  TRACK 02 AUDIO
    TITLE "0:"
    INDEX 01 00:01:40
  TRACK 03 AUDIO
    TITLE "13:cjc040_0171"
    INDEX 01 00:02:22
  TRACK 04 AUDIO
    TITLE "0:"
    INDEX 01 00:04:03
  TRACK 05 AUDIO
    TITLE "14:cjc040_0172"
    INDEX 01 00:04:52
  TRACK 06 AUDIO
    TITLE "0:"
    INDEX 01 00:11:25
  TRACK 07 AUDIO
    TITLE "12:cjc040_0173"
    INDEX 01 00:11:74
  TRACK 08 AUDIO
    TITLE "0:"
    INDEX 01 00:13:18
  TRACK 09 AUDIO
    TITLE "13:cjc040_0174"
    INDEX 01 00:14:04
  TRACK 10 AUDIO
    TITLE "0:"
    INDEX 01 00:15:50
  TRACK 11 AUDIO
    TITLE "14:cjc040_0175"
    INDEX 01 00:16:32
  TRACK 12 AUDIO
    TITLE "0:"
    INDEX 01 00:20:65
  TRACK 13 AUDIO
    TITLE "12:cjc040_0176"
    INDEX 01 00:21:43
  TRACK 14 AUDIO
    TITLE "0:"
    INDEX 01 00:23:06
  TRACK 15 AUDIO
    TITLE "13:cjc040_0177"
    INDEX 01 00:23:65
  TRACK 16 AUDIO
    TITLE "0:"
    INDEX 01 00:28:06
  TRACK 17 AUDIO
    TITLE "14:cjc040_0178"
    INDEX 01 00:28:60
  TRACK 18 AUDIO
    TITLE "0:"
    INDEX 01 00:34:00
  TRACK 19 AUDIO
    TITLE "12:cjc040_0179"
    INDEX 01 00:34:49
  TRACK 20 AUDIO
    TITLE "0:"
    INDEX 01 00:35:66
  TRACK 21 AUDIO
    TITLE "13:cjc040_0180"
    INDEX 01 00:36:42
  TRACK 22 AUDIO
    TITLE "0:"
    INDEX 01 00:41:45
  TRACK 23 AUDIO
    TITLE "14:cjc040_0181"
    INDEX 01 00:42:19
  TRACK 24 AUDIO
    TITLE "0:"
    INDEX 01 00:48:00
  TRACK 25 AUDIO
    TITLE "12:cjc040_0182"
    INDEX 01 00:48:55
  TRACK 26 AUDIO
    TITLE "0:"
    INDEX 01 00:50:11
  TRACK 27 AUDIO
    TITLE "13:cjc040_0183"
    INDEX 01 00:50:64
  TRACK 28 AUDIO
    TITLE "0:"
    INDEX 01 00:52:20
  TRACK 29 AUDIO
    TITLE "14:cjc040_0184"
    INDEX 01 00:52:71
  TRACK 30 AUDIO
    TITLE "0:"
    INDEX 01 00:56:24
  TRACK 31 AUDIO
    TITLE "12:cjc040_0185"
    INDEX 01 00:56:74
  TRACK 32 AUDIO
    TITLE "0:"
    INDEX 01 00:58:30
  TRACK 33 AUDIO
    TITLE "13:cjc040_0186"
    INDEX 01 00:59:08
  TRACK 34 AUDIO
    TITLE "0:"
    INDEX 01 01:01:58
  TRACK 35 AUDIO
    TITLE "14:cjc040_0187"
    INDEX 01 01:02:26
  TRACK 36 AUDIO
    TITLE "0:"
    INDEX 01 01:07:47
  TRACK 37 AUDIO
    TITLE "12:cjc040_0188"
    INDEX 01 01:08:23
  TRACK 38 AUDIO
    TITLE "0:"
    INDEX 01 01:09:36
  TRACK 39 AUDIO
    TITLE "13:cjc040_0189"
    INDEX 01 01:10:24
  TRACK 40 AUDIO
    TITLE "0:"
    INDEX 01 01:11:58
  TRACK 41 AUDIO
    TITLE "14:cjc040_0190"
    INDEX 01 01:12:36
  TRACK 42 AUDIO
    TITLE "0:"
    INDEX 01 01:18:62
  TRACK 43 AUDIO
    TITLE "12:cjc040_0191"
    INDEX 01 01:19:38
  TRACK 44 AUDIO
    TITLE "0:"
    INDEX 01 01:20:67
  TRACK 45 AUDIO
    TITLE "13:cjc040_0192"
    INDEX 01 01:21:49
  TRACK 46 AUDIO
    TITLE "0:"
    INDEX 01 01:23:16
  TRACK 47 AUDIO
    TITLE "14:cjc040_0193"
    INDEX 01 01:23:69
  TRACK 48 AUDIO
    TITLE "0:"
    INDEX 01 01:27:51
  TRACK 49 AUDIO
    TITLE "12:cjc040_0194"
    INDEX 01 01:28:31
  TRACK 50 AUDIO
    TITLE "0:"
    INDEX 01 01:29:58
  TRACK 51 AUDIO
    TITLE "13:cjc040_0195"
    INDEX 01 01:30:34
  TRACK 52 AUDIO
    TITLE "0:"
    INDEX 01 01:31:49
  TRACK 53 AUDIO
    TITLE "14:cjc040_0196"
    INDEX 01 01:32:31
  TRACK 54 AUDIO
    TITLE "0:"
    INDEX 01 01:36:43
  TRACK 55 AUDIO
    TITLE "12:cjc040_0197"
    INDEX 01 01:37:26
  TRACK 56 AUDIO
    TITLE "0:"
    INDEX 01 01:39:43
  TRACK 57 AUDIO
    TITLE "13:cjc040_0198"
    INDEX 01 01:40:23
  TRACK 58 AUDIO
    TITLE "0:"
    INDEX 01 01:42:16
  TRACK 59 AUDIO
    TITLE "14:cjc040_0199"
    INDEX 01 01:43:03
  TRACK 60 AUDIO
    TITLE "0:"
    INDEX 01 01:48:50
  TRACK 61 AUDIO
    TITLE "12:cjc040_0200"
    INDEX 01 01:49:30
  TRACK 62 AUDIO
    TITLE "0:"
    INDEX 01 01:51:07
  TRACK 63 AUDIO
    TITLE "13:cjc040_0201"
    INDEX 01 01:51:58
  TRACK 64 AUDIO
    TITLE "0:"
    INDEX 01 01:54:05
  TRACK 65 AUDIO
    TITLE "14:cjc040_0202"
    INDEX 01 01:54:58
  TRACK 66 AUDIO
    TITLE "0:"
    INDEX 01 02:00:29
  TRACK 67 AUDIO
    TITLE "12:cjc040_0203"
    INDEX 01 02:01:05
  TRACK 68 AUDIO
    TITLE "0:"
    INDEX 01 02:02:34
  TRACK 69 AUDIO
    TITLE "13:cjc040_0204"
    INDEX 01 02:03:14
  TRACK 70 AUDIO
    TITLE "0:"
    INDEX 01 02:05:03
  TRACK 71 AUDIO
    TITLE "14:cjc040_0205"
    INDEX 01 02:05:54
  TRACK 72 AUDIO
    TITLE "0:"
    INDEX 01 02:09:66
  TRACK 73 AUDIO
    TITLE "12:cjc040_0206"
    INDEX 01 02:10:43
  TRACK 74 AUDIO
    TITLE "0:"
    INDEX 01 02:12:52
  TRACK 75 AUDIO
    TITLE "13:cjc040_0207"
    INDEX 01 02:13:28
  TRACK 76 AUDIO
    TITLE "0:"
    INDEX 01 02:14:43
  TRACK 77 AUDIO
    TITLE "14:cjc040_0208"
    INDEX 01 02:15:17
  TRACK 78 AUDIO
    TITLE "0:"
    INDEX 01 02:19:07
  TRACK 79 AUDIO
    TITLE "12:cjc040_0209"
    INDEX 01 02:19:56
  TRACK 80 AUDIO
    TITLE "0:"
    INDEX 01 02:21:43
  TRACK 81 AUDIO
    TITLE "13:cjc040_0210"
    INDEX 01 02:22:31
  TRACK 82 AUDIO
    TITLE "0:"
    INDEX 01 02:24:06
  TRACK 83 AUDIO
    TITLE "14:cjc040_0211"
    INDEX 01 02:24:57
  TRACK 84 AUDIO
    TITLE "0:"
    INDEX 01 02:29:70
